# xmcd CD database file
#
# Track frame offsets:
#	150
#	453
#	22956
#	44989
#	64067
#	81034
#	106192
#	129256
#
# Disc length: 1727 seconds
#
# Revision: 0
# Processed by: cddbd v1.5.1PL2 Copyright (c) Steve Scherf et al.
# Submitted via: CDex 1.51
#
DISCID=5a06bd08
DTITLE=HONEY MANNIE - A PERFECT DAY FOR HONEY MANNIE
DYEAR=2003
DGENRE=Pop
TTITLE0=HONEY MANNIE
TTITLE1=SUPERNATURAL
TTITLE2=LOVELY DISCO QUEEN
TTITLE3=FROM SEASON TO SEASON
TTITLE4=LADDER TO HEAVEN
TTITLE5=DRIVE THRU TO THE OTHER SIDE
TTITLE6=HATE YOU FOR YOU
TTITLE7=HONEY MANNIE
EXTD=YEAR: 2003
EXTT0=
EXTT1=
EXTT2=
EXTT3=
EXTT4=
EXTT5=
EXTT6=
EXTT7=
PLAYORDER=
